<mxfile>
    <diagram id="qVArUwffu2z2dnn1yWE1" name="第 1 页">
        <mxGraphModel dx="722" dy="628" grid="0" gridSize="10" guides="1" tooltips="1" connect="1" arrows="1" fold="1" page="1" pageScale="1" pageWidth="800" pageHeight="700" math="0" shadow="0">
            <root>
                <mxCell id="0"/>
                <mxCell id="1" parent="0"/>
                <mxCell id="3" value="" style="image;html=1;image=img/lib/clip_art/computers/Laptop_128x128.png;fontSize=16;align=center;" vertex="1" parent="1">
                    <mxGeometry x="331" y="241" width="80" height="80" as="geometry"/>
                </mxCell>
                <mxCell id="23" style="edgeStyle=orthogonalEdgeStyle;curved=1;rounded=0;orthogonalLoop=1;jettySize=auto;html=1;fillColor=#e51400;strokeWidth=2;strokeColor=#FF0000;" edge="1" parent="1" source="5" target="7">
                    <mxGeometry relative="1" as="geometry"/>
                </mxCell>
                <mxCell id="24" style="edgeStyle=orthogonalEdgeStyle;curved=1;rounded=0;orthogonalLoop=1;jettySize=auto;html=1;entryX=0;entryY=0.5;entryDx=0;entryDy=0;fillColor=#e51400;strokeWidth=2;strokeColor=#FF0000;" edge="1" parent="1" source="5" target="9">
                    <mxGeometry relative="1" as="geometry"/>
                </mxCell>
                <mxCell id="5" value="src 源码目录" style="aspect=fixed;html=1;points=[];align=center;image;fontSize=12;image=img/lib/azure2/general/Folder_Blank.svg;" vertex="1" parent="1">
                    <mxGeometry x="347" y="377" width="38.2" height="31" as="geometry"/>
                </mxCell>
                <mxCell id="7" value="" style="dashed=0;outlineConnect=0;html=1;align=center;labelPosition=center;verticalLabelPosition=bottom;verticalAlign=top;shape=mxgraph.weblogos.chrome" vertex="1" parent="1">
                    <mxGeometry x="140" y="241" width="52.58" height="53" as="geometry"/>
                </mxCell>
                <mxCell id="18" style="edgeStyle=orthogonalEdgeStyle;curved=1;rounded=0;orthogonalLoop=1;jettySize=auto;html=1;entryX=1;entryY=0.5;entryDx=0;entryDy=0;" edge="1" parent="1" source="9" target="10">
                    <mxGeometry relative="1" as="geometry">
                        <Array as="points">
                            <mxPoint x="526" y="131"/>
                        </Array>
                    </mxGeometry>
                </mxCell>
                <mxCell id="9" value="内存中的打包结果" style="shape=image;verticalLabelPosition=bottom;labelBackgroundColor=#ffffff;verticalAlign=top;aspect=fixed;imageAspect=0;image=data:image/png,iVBORw0KGgoAAAANSUhEUgAAAIAAAACACAYAAADDPmHLAAAMbElEQVR4Xu1dfYwU5Rn/PbN3t3sH4lcU1LQGtaZColRkZxFbbZvUVtoaP8BWwQo7S5VE/aNajU0EY22rNqnFKOV2lrOn1CAC2ojWNE2tEe52FaVGSD9Qem0IJzQCetzO3Mc8zSwcvTv2duadnV3mPd75x8g+H795nmef3zvv7TwvwceVzNjXEfNsMJ0B8GQimsLsnAWiKT7UwxLpY3A3kbYHzN1g7CXifYPEm97OtmwJy0kQO6mM9S1mXgjQRQDOAHAmgMYgtgLqHABjHwh7AWzUGC935BI7/diisYSmLd07cWL/pAVgWkjgy/0YO14yDGwE0bOFbHxjvTAkM9aFGvOtDLoJwAX18uvXDwGvOEzthVx8XSWdsgWQNOxlAC8k4Hy/DqMgx6AtYDzhddPVYk0Z1koGfgCguVpbtdenDsB5Om82P1fO1zEFkDSKywm0rPbAaueBmebXqgh0w3oHwMzaoa+NZQY/VDCbl4+2PqIA3G8+gY8Rqg2k2lqtRRHohnUIQEttkdfOerkiOFoA4yn5w0I4N28mXg0jpLphvQdgRhi2jqeN0V+MUgGUFnx9k7bJxvmegSRanc/G055yHgKpjPUCM+ZVaycq+sOLoFQAyYx1OzFWRgVgiDgOan3O9I72lt1BbaYy1p3MWBFUP5p69L52UlOq41dUPFwAhr056o96QQNJwN2dZiJQAmen+TSH7HwUH/OCxmNIj5ju68zFH6MjmzwbqjUYXX1+M282XxkEX4B10esM7gTROxpzTxCfQXQYdCEBycN7EjzRnw3ePaAVp5OesR4H4x5/SnJKDWiDZ29tnbBHFL1uFP8E0Nf86I31mOVHNywZ/Yf2NB5EVqCbzyU9Y7ejtI05fi+NYnM6so1C28Uzl3Bjg2O7j32eW7oax0/vyNEnUYlg0ig+R6BbvPAQ6BG3A7wOxje8hGX+nIgWdGbja0TuIWUUr2LQn710gtj2slnt5zOX8FkNjvUBQKd52HqDdMP6K4CLq3UabX1+MG82PyyCUc9YS8F4qrIO7c+bca8gi7gNTTZlFNcw6GYPg9tJN4rdAE0OzXMkDVFb3owvFoGmp62nQFjqofP3vJn4oojdesnqhn0/wD+v5I/B+9wOwPUCdRz9vJE3E18V8a8bltv+r/JqoaJ2RTBUI+ubwlQBlA+zKoBqyi96uqoDjJETRQFjBEZ1gOh9i6tBpDqA6gBqEViuBhQFKApQj4HlakCtAaph3OjpqjWAWgOoNYBaAwh0JkUBAsGSQFRRgKIARQGKAgRalaIAgWBJIKooQFGAogBFAQKtSlGAQLAkEFUUoChAUYCiAIFWpShAIFgSiCoKUBSgKEBRgECrUhQgECwJRBUFKApQFKAoQKBVKQoQCJYEoooCKlCADaBJgiQGh8h4LZ9LXCNiQDesTQAq6rhzCQtmfI6I3XrJJpdYc8nBKx7++ilpFLsI9Pl6ATsefhh4smAm7hLxrRvWYwDuraTDwIcFMxG5KaEu5qRRfMB9/9/jnne7AyI6wayLBEc2WSLc1ZlNPCmCO7W4eBtr1FZZh3ryZvwkEbv1ktXT1osg3ODhb5v7XsBLAK6tF7Dj4YcI13ZmE78X8a0b9sUAu7MTKl4MmAUzkfGSq+fnybQ9j4hf8PZJG0hPW60gROoGvIGLSbCjzSisbvJM5mirfmcnBCkwsTsQk/aNG1hKKaP4CIMeEHMhl7Q9UDx12zOnHhBFraeLz4Poe3703CFRg1pi1dZWEh5G5ce+H5lkxvo2Mf/Wx2iYkjmOabNoVqb3co21zX4cSCnDWJ/PJW4Mgl1PFxeDKOdfl3oYeJ/ABQYf9K83JKkFHNbBl7hjfgQnvW7Om4krjgyKtDYQcJ044OhrMJybC2bL80GR6ob9EsDjbo00RFtHRsWWTgQZj8Mid352MD59xzrqC1oAqXTvHCbtraD6kdQbNkN5+LTwcTculpkeLeTi91ebhKRR/AmBflqtnYjo/6PBiV+2eTV95uL5fwH4fnSIyG14wqDtiGF+flV8h6eoD4GUYW9gsPQ0qWl0UUdr/G9DtzzywIhxUwThJn8oWLphrQKwxEe9RFREuyxvNm0dDu7YI2OkL4LaJP9oEQg/GUShFujlAc02trZO+u9oNGUPjdIN6xoQ3QBmdyvx5Cjcgg8MO5lpPTWgPay2P5bP1KJe3YnRnX7m8frAXUuRnURYUWkbfMxj41xUs2/tPYebtBsYbiHQV2qJNLBtxnomZ33Pweb11az2g/h3zwsEsCh6p4nQdobzYowTK7yGWFcsgOFBmbnk0FlN3DSV4Uxlds4DtKkATw0SuCA6DFgAdhHhI4B2EQ3saoj173pr5Sn7g9gLU+fLi/iMvgZ7HhhfIPCZDPeATe8p46FhIByAg33uQZoA/thpNr/h17bvAvBrUMnJFQFVAHLlK3S0qgBCD6lcBlUByJWv0NGqAgg9pHIZVAUgV75CR6sKIPSQymVQFYBc+QodrSqA0EMql0FVAHLlK3S0qgBCD6lcBlUByJWv0NH6LoDj/ccgMIpM2KkR/gmgyxnUuvqcQ11Bfu4dZhRn3Lb/lCZtwrlazDkXwLmO+wchxgUgNIfpp5ItBu8GsBPAR8wN/2rEQNeWXHOXH//qz8F+olRG5vCp685NKJ3YHb2LQB+AsJY1XptflXC/NGUv9YMQgdzNm8exrkl9PyKCe0z7pQKqx1O0D8xrGbS2kEu4bzyPuNRPwnymptTqG1raCfwdnyqRE2Om+YVcfN1wYOpHoT7SNGtR7+e0mPYcgGj+KsrHPQyJjC4C9bNwj+ClDPsiBv8OwAyBOEdadHgRqBdDPFKVTNu/IOL7Ip1RQXDDJ5uoV8MqBG/aPG466WR7O4BITgERzPsIcSa6vpCNb1Qvh1aIYtLo/T5Bc9v/uLsY2FgwE9er18MrpNbnmBVpi8MhZ84JMSCisdE6TfTn41fcceDU/v7EJ9Jm1wdwAv3shBgRQ9rgzM7WCe/6iMlRkdSSQ5eyExvxHp2IvgyyBOROiCFRILoxn42vF0mKnrHdV+NeFNGRTpax6YQYEwfCvfls4pciCdIz1j1gPC6iI58sv3OiDIpcWTATS0USlDSspwm4Q0RHQtn/uBQw7kfFMvCHgplwX+T0fSUN6zUCvulbQU7BPrcAAk6mkuqOazUsWqoglAOrCmCMFPocF68KQJIIqA4wRqJUB1AdQK0BytWAogBJertPmIoCFAXU5NAon/UXXTG1BlBrALUGUGuA6HaosJCpNYBaA6g1gNoJFOgn6jFQIFgSiCoKUBSgKEBRgECrUhQgECwJRBUFKApQFKAoQKBVKQoQCJYEoooCFAUoClAUINCqFAUIBEsCUUUBigIUBSgKEGhVigIEgiWBqKIARQGKAhQFCLSqE4cC0sU9IJoiEBsJRaktb8YXiwBPGlaWAENERzpZ5m5KGfa7DP6SdOCFAPODebP5YRGVVNr+MRM/KqIjmyyB3nMnhLwKgtCbs9LdKNGCzmx8jQjuVKZ3PrO2VkRHOlnGa6Sn7TYQ3yYdeAHAGsXmdGQbtwiowD0gmmNap4iOdLJMz7jvBTwG4F7pwAsAHtAGz97aOmGPgAp0gycDdreIjoSyj9Phsee8QULwPiHzm3mz+UqfwiPEdKP4l8iemh7khkbpuMMijwyKtDcT+PIQbEbOBAF3d5qJFUGApQzrLgZ+HUQ36jpD42KPjIq1bifGyqiDDoDvoNbnTO9ob3FP1BC+Zt/ae47TpLmjYk8WVo64AhPuKGQTvykVwLSleydO7Ju0jYDzI45bDB7R6nw2nhZTGimtZ+wcmIX2EKrxVw9dBj7safp0xo6nz+wZNi28uJxAy+oBoI4+5ubNxKvV+NMN6xoALwNoqMZOlHQZ/FDBbF7uYhp5YIRhLyNw6QPZr3KnYwS9p2Sm/2piZw3Apwe1ERW94ck/pgDcf0ga8neCMJM/lLhUuncOk9YO4LyoJFMUx+jkly2Aw0VgLwN4oWxrAndlC8YTo8/FEQ3UWPLJxT2XkNbwEIBrw7JZDzsM/jeAtqG2P9znmMfGlRaG/ZMWgGlh1B8R3dn3IHrWPQChHgGdlS5+nQiLCHRLPfwF90HbAW7TON7WkaOyk899HRxZ2iwq7RPQZIAngzGl9N/S/9ft6mNwN5G2B8zdYOwl4n2DxJvezrYIbfOGhdjdLkYs9l03FuzGhI7GxI1LU1h+vO3wfoDcXcuPAf4YoI+ZsaPn03jbjnXUV0n/f+gOa+VhhNV5AAAAAElFTkSuQmCC;" vertex="1" parent="1">
                    <mxGeometry x="505" y="241" width="42" height="42" as="geometry"/>
                </mxCell>
                <mxCell id="21" style="edgeStyle=orthogonalEdgeStyle;curved=1;rounded=0;orthogonalLoop=1;jettySize=auto;html=1;" edge="1" parent="1" source="10" target="7">
                    <mxGeometry relative="1" as="geometry">
                        <Array as="points">
                            <mxPoint x="362" y="159"/>
                            <mxPoint x="257" y="159"/>
                            <mxPoint x="257" y="250"/>
                        </Array>
                    </mxGeometry>
                </mxCell>
                <mxCell id="10" value="开发服务器 dev server" style="shape=image;verticalLabelPosition=bottom;labelBackgroundColor=#ffffff;verticalAlign=top;aspect=fixed;imageAspect=0;image=data:image/png,iVBORw0KGgoAAAANSUhEUgAAAIAAAACACAYAAADDPmHLAAAQmElEQVR4Xu1de3RU1bn/7T0zGVQUoT4QF5RKhWAyPF2Uqm2vvbXCkke9PKy2tbq0XO+tLVq1vshkMuHKUquroV29F7WtbZcLC/GBtldavbZeg5VrQMhMxAdYICCRV5Mq4OTM7K9rHxJuwsxkzvvsDOf8xSJ7f8/f7LPP3t+DoQyf6FtLzofGK0WIxoDYaGLsXEY0HIQzGMcQIpxTSG3GsIcInQD2E2PtDNgFiB2CQlvDoew7mQuWvldu5mIDXaGTUveOzLHQJUQ0HWAXApgE4GSX9DoEYBM4mlkW60M813Qk9h9tLvHyhOyABEC4NTGDCTEDDF8BocoTSxVjQmgFw0skxNrsxKVrfZXFAvMBA4BQKn4FJ5oPxr4G4HQLunoxpQNEzwrGGnOx5O+9YGiXh9IAiG5JjKWsuI6IbgRjZ9pV1uP5exlnjzGN/SozKfGux7wNs1MSAOFN8csRwr8y4ErDmig8kMCeBrAiG6v7o2piKgWAinR8HhFuAXCJaoZyRB6GVxnQ0FWdfMoReg4QUQIAoVRiFoe4C8DFDug0EEg0CfD7c7HE7/wW1lcARFprJhOxWkaY67ch/OBPDGtYluq0SfVv+sFf8vQHAJTgFa20jIh+6JfiKvFlxB7oirG7wRLCa7k8B0B085I5IsQfBGGs18oqzY/wLue4PVOdfN5LOT0FQCRV2wDQ971UcODxYsu1WN1ir+T2BACRTYlpCIn/BDDFK8UGNB/CRnC6Sauuf8NtPVwHQCQd/w4Ij7itSFnSZ/w7WnXiMTd1cxUAkVT8RwBuc1OBE4D2Q1osebtberoDgOZFkXB0+EoGzHNL8BOJLhE1Zg+ErsaliazTejsPgNbE8AiJ1aAyPc1z2gPG6TVpyM5H7L4PjU8pPdJRAEQ3JD4rKsQzAKpLsw5GWLBAikNcmYkt3WZhbsEpjgEg+vaScULj8gp0jFPCBXQKWmArF2JWZuLSd5ywjyMA6P7ly2CIwPlOeKU0ja0cYoYTK4F9AMh3vhAvBst+aa85PCKlIXoZYvfa2hPYA0Dzokhk0PCXgw2fw641Tq5J288vtfN1YAsA4VS8MfjUM+4tN0YSY43Z6roFVmlbBkBwyGPV5K7Ms3xYZAkAwfGuK060R9TisbFpAERaE9MgxHp70gazXbEAo2lmL5DMAyBVuwGg4FbPFQ/aJErYqE1ITjVDxRQAIqn4cgDfM8MgGOu1BczFExgGQLQ1MUcIscZrddziN/u0SoyOnA6NBHZoHXjhI2VD902bgDPMMRpZZAwAqxaEIuPHbwFwvmlpFJsw69RxWHzGRfjSKaP7SPbKoe1o2P8afveRIyes/mpNeFeL8fFGYgwNAaAiFX+AgDv81co+9zmnVWL1qK+DFYmFJRAW7HwSz/39bfvMfKagB5pOqLuzlBglARDZnJgCLjaUIqT632eeOharRl2FKAv3K2qGsli487fl8UrI0ZRSIeclARBuqVnDGJujuoP7k++fB4/Rf/mDeYUhNT4WXfpK8D8fO3braoiv04Nk3kG2OimTaYs+/QIgmo7PFoTnnBbMS3pfPGU0Vo36OoaFTjLF9mDuCBbufBL/e2i7qXmqDRbgs/vLQOoXAJFUvGkgp2tNP3mk/ss/OzzYkl8+zH6srwSvHx7QNSCatFjyC8UMUBQAFZuXzCfOV1uynAKTpp40Qv/lj4wMsSVNm9aprwQbjnxgi46fkxnD/GIJqUUBEEnFXx2oWbqxQWfrv/zzKoY5Yvf3uw7qK0HqE1tX747IYokIw6tadfKLheYWBEA4Hb+cEZQodyI3cGMqhuLs8KlFdKe8/18wpBqVUWfrSbyd2YfVna0FZMjnLwfJlWOn1omXP37fks+cnkRglxeqT1AYAKn40yoUZ/jZiNm4cZis+zRwn3WHd+LS93/uuwLE2NPZ6rq8MP08AEQ3LxknOPf9JORP592Ai08e5bvhnBDgsYPN+PcPPM35LCg2z/Fxx5eryQNARSp+HwF3O6G4VRpfHnwe1o7+ttXpSs6buf3Xvp8rMLD7umJ19/Y2UB4AIqn4XgDOvkBNuuS6oZPxyLn9nl+YpOj/8Js/eB6PHGz2W5C9Wix5dlEAhFJLZnFw39eqmrMuRc1Z/+S3sRzlX7/3T6jf+2dHaVohJkL8itwFif/umdtnBYika38JouusEHZyTgAAJ615HC2ix7UJ9dcXBkAq3gHA3smJA7IHAHDAiMVJdGix5NA8AIRa4jM5w7GlwVURShAPAOCu9UmImT1lbY+9AiKpmgaAKVG+JQCAuwAA0KDFkrIe4/9HRkRScXnMdYHrrA0wkBtACYJyelTZBOo2JbRqE5J6Bre+AgxqrR2VE7RDFYOXJwD+DAkCVZ4wcqNkqXsdABUtNdcQY0+oIlwAAPc9wQSu6ZqYlFVcANXKt5XnHkCtFQAcDVpV8pZuAMTXAbjIfdwZ4xAAwJidbI5ap8WSl/QAQLZCcavNimk5VQXA2o/eQ2NnGjKEXMp47VDZncbYI08BVdoDgHBYm5A8hUU3JcaKkFAmGF4GczwxcoHj9/nG3FR81KrONL7Z1jdAavu42zAicpoh0jKe4Bttq5UKKuEhMZapFPgpw7ik852K5DHkGQODnuxI4dpdjXkjzW5WZWSRBIEq4WUyYJRFWuK3guFhA3ZwdYgM4JTOtxvD57SQT3RsxvW7ZMOPvs854VPRcv7NGBIaZIqljBSSIFAi0JTRrSzSGv8xBDwrTlzIWjJ0WzrfavSuKQ+YGPybjk24YZesepf/rBy5EPOGWGtYJqONJQh8Dzln7MfM7zIvMuZPOt9s3L4JP1oa+vjf3sSi3c867vwegjLvQILAz+QTWV6G+Rn7L9O1pPONZuxY8qSFSb/42wbctLtwPoydX/7xosgMJAkCHzOTmyQAZNZvpQU72ZoiEzWl80vl6tliYmHyoweb8d0i8XtOOr9HNJmLKEHgU0LqFlaRiu8hYLgFW1meIlO0n/r01UWzdC0TtjlxxcE38L0PCvdxcsP5PeLKrOR5O1Z6npoueyXLFaBwYLtNY/Y3/cXPXJ+Xn+8iO0Okf3ZgPW7ZUzgcwk3n9wgnD5cu++svDcnq5CDPASDf+2s+/Q0nddCXz1cO/RWNna24cdhU01fJPz3wOn6w5wXXNnxGlZ23cyWe97g2gecAuGnYNCwfcYVRmxga94X3H8X6w7uOjb1qSAy/GTnf0NyG/X/BHe2Fk6C8+OX3FvK2PS/gJwdeNyS3U4MGPACKLZ3fHjoZj5YILX94/zrc1V64m6vXzpcOPSEA4MYrYPq2FdhYIHt30bAL8dMRswv+WH60vwn3tMsa1/mPH86XUpwQrwCpqNObwKc6W/WLmhzy97M3f2o6Hj5nZh8v37/vVdR8+JJSzvdtE1gun4Fy8yS/pz+h/LY6t51xMZYN/6ru8GX7XkHthy8r5Xy/PwPL5iBI3tfLleDvIpPn4HvO/BLCjCNZJC7Pr2Xf54Ogt8vuKFierX+zrREHcocNb5T9cr4SR8HleBkkb9kkCNqzH5UEgV/OV+gyyP+EEDeug/9yuA3falutV+ko9vjlfGWug4EGFknHbwWVZ0BI85Hd+FZbI7Z1HczDgF/OVy4gRG/nzrkSRaDdCAlr+aRdB8GWzL5jIPDL+aqFhHGBOSy6JTFWZMs7KHRv9hBkaNcurRPXDp2MiYM8vfzUgadsUKgULtJScxiMmSulWXJ7ZX2AqmHh1jWCXhxCqbBw4JAWSw7uyQt4DcDn7Sjo5NwAAE5asyitPokhSnUCCQDgBQBouRarX6xocmg51ghS6xXAGK7pqu5ODlUvPTwAgNtrQJ/0cH0jqFSBiAAArgLg+AIRRwFQ2wBQUCLGJcsr9hWQXyImKBLlkue7yaoEAOJ8ZrYqocfB9a0TGJSJcw0FCgGgcJm4owdC8cfB4HuR3uAz0DUcAow9rlXXFS4UGZSKdc/wqqwAApiViyV/36NpUCzaPZ/3oaxEsWiifdqE+rN6C5ZfLj5du4yI7vLILgXZBOXi3bE+A5Z1xZL39AuAoGGE88ZXpmFEmI/LjE/0aZJcpGVMzTMMzPeC/UHLGOfASMAz2VjyX46nWBgAm5fMYJwXTpZzTiZDlEo3jcons2BIleNFpoo3jSqsRpvWoVbTqBxmZCcl/2AIAN1HwwO2aWTQNi4PlEWbRxZvHNmamE9CBI0jT9TGkd2rgFIVRA29M3oNClrH6sbQAz+K2S5oHl3EMkHz6G7DhNO1axhR0D7e7PKjwHgiei47oX5uf6L0uwLor4G3ElOQExsU0MeWCDItfdWoq0oWpZK5egt3/tbPyl229OwzmdMUrar+TVsAkJMrUvEHCLjDOcn8oSQrk8mm0qzvJegxYWSWrmwS7VPFLkeNwhh7oKu67s5SREuuADoBWhWKtKa3gHB+KYKq/11WKFt8xkV5Rapkfn7D/tc8r9Tlir0Y3tWq+HiwhChF3xgA9K4i8bnEULh0ZikuCv599mmVGB05HRoJ7NA6ymPJ77YzF2JuZuLSwpUuj/OFYQDo+4FUXKnwcQVxpYBIbLkWqzNc+9kUAHQQtMQ3gmGyApoGIuRbYKMWS041YxjzAGhNTIMQ680wCcZ6ZIEc/5w2KfF/ZriZBsDRVaBmERhbYYZRMNZlCzAs0qqTj5rlYgkAOgjStQ+B6AdmGQbjXbHAQ1osebsVypYBIJmF0/FGRphnhXEwxxkLEPBUNpY0Vha1AEtbAEDzikgkulu2w7zYGXUCKiYt0KRl2r+MCx/RTM47NtweACSZ5nvOiVSEXwSDtf4pViU/0ecR0lqIX4aqRLsdU9gHAIBoa+KzQgiZaTLGjjDBXMMW2Ma7+IzM1MRWwzOKDHQEAJJ2RUuikpiQ3RYCENj1Sv/zt/FI5IpMZY0jvR4dA4CUWV8JcuLZ4HXgGgLSvItf6cQvv0dCRwGgE5V7gmhYhpIFG0MnccDQpDG+wO47/3iRnAeADoIVkfCg3SuDT0RnEKB/6mXar7az2y8miTsA6OYWHBY5AgDLhzxGuLsKAClAcGxsxA1Ft+iWjnfNcHQdADoI5AVSTvxXcIto2DUbwfm/aVXmLnYMU+810BMA9PAL4gkMuegnWizpWakeTwFw9LwgPpc4HiyH8DJD7jQ+6D3O+e2ZqoShSB7jZPsf6TkAdHFoVaginV5WDoGmTjiCAQ92bdlyNxauzjlBzwwNfwDQ85XwVmIKCaod6HkHZgzee6yM22cUqtMmJjZapWF3nq8A6BE+mo7PFsCdoBPm8GgdZ7g/U5183q4D7c5XAgA9SlTIhFSixSAqmstmV2Gf5zcxIRq6Ji5t9FmOY+yVAkCPVOF0/HIIuokx/4tUOOEoWZwBDCuy1fn5+U7Qt0NDSQAcezVsXjKOQqHriOgGAGfaUdSHufsY8BgT4leZiUsdublzQwelAdBbYb2EHfH5YJCla4a4YQzbNIk6wfkzgqixdyk223RdJDBgANAHDC3xmZyxGQB9BcAFLtrHCOm3AHpJEFubm5BUoqyOEaF7xgxIAPRWUJa6FzlxCTE2HYQLAZrkWvsboiMA2wTG3mAk1vMQb/qkqm6nGYOrNnbAA6CQQWUjLHRlK0WIjwHRaAI7lwGyU9SnGHA6Hf133sOAdgI6ABwgoJ2BdoPYds6xFVn+TmZS3xJrqjnTijz/AJe5p35wE1ksAAAAAElFTkSuQmCC;" vertex="1" parent="1">
                    <mxGeometry x="339.2" y="108" width="46" height="46" as="geometry"/>
                </mxCell>
                <mxCell id="11" value="" style="curved=1;endArrow=classic;html=1;entryX=0;entryY=0.5;entryDx=0;entryDy=0;" edge="1" parent="1" source="7" target="10">
                    <mxGeometry width="50" height="50" relative="1" as="geometry">
                        <mxPoint x="178" y="224" as="sourcePoint"/>
                        <mxPoint x="228" y="174" as="targetPoint"/>
                        <Array as="points">
                            <mxPoint x="202" y="131"/>
                        </Array>
                    </mxGeometry>
                </mxCell>
                <mxCell id="13" value="1. 请求" style="text;html=1;align=center;verticalAlign=middle;resizable=0;points=[];autosize=1;" vertex="1" parent="1">
                    <mxGeometry x="195" y="132" width="47" height="18" as="geometry"/>
                </mxCell>
                <mxCell id="19" value="2. 从打包结果中取出内容" style="text;html=1;align=center;verticalAlign=middle;resizable=0;points=[];autosize=1;" vertex="1" parent="1">
                    <mxGeometry x="502" y="144" width="143" height="18" as="geometry"/>
                </mxCell>
                <mxCell id="22" value="3. 响应内容" style="text;html=1;align=center;verticalAlign=middle;resizable=0;points=[];autosize=1;" vertex="1" parent="1">
                    <mxGeometry x="258" y="206" width="71" height="18" as="geometry"/>
                </mxCell>
                <mxCell id="26" value="1. 源码变化，重新打包" style="text;html=1;align=center;verticalAlign=middle;resizable=0;points=[];autosize=1;fontColor=#FF0000;" vertex="1" parent="1">
                    <mxGeometry x="374" y="324" width="131" height="18" as="geometry"/>
                </mxCell>
                <mxCell id="28" value="2. 源码变化，刷新页面" style="text;html=1;align=center;verticalAlign=middle;resizable=0;points=[];autosize=1;fontColor=#FF0000;" vertex="1" parent="1">
                    <mxGeometry x="188" y="337" width="131" height="18" as="geometry"/>
                </mxCell>
            </root>
        </mxGraphModel>
    </diagram>
</mxfile>